<svg width="48" height="36" viewBox="0 0 48 36" fill="none" xmlns="http://www.w3.org/2000/svg">
<rect width="48" height="36" rx="6" fill="#016FD0"/>
<path d="M9.2948 26.25V19.1082H17.2542L18.1081 20.1658L18.9903 19.1082H47.8809V25.7575C47.8809 25.7575 47.1253 26.2429 46.2515 26.25H30.2542L29.2914 25.1242V26.25H26.1364V24.3282C26.1364 24.3282 25.7054 24.5965 24.7737 24.5965H23.6998V26.25H18.9228L18.0701 25.1697L17.2042 26.25H9.2948Z" fill="white"/>
<path d="M0 13.7255L1.79487 9.75H4.89891L5.91752 11.9769V9.75H9.77613L10.3825 11.3595L10.9704 9.75H28.2915V10.5592C28.2915 10.5592 29.2021 9.75 30.6985 9.75L36.3186 9.76866L37.3196 11.9664V9.75H40.5487L41.4375 11.0124V9.75H44.6962V16.8918H41.4375L40.5858 15.6253V16.8918H35.8415L35.3644 15.766H34.089L33.6197 16.8918H30.4023C29.1146 16.8918 28.2915 16.0991 28.2915 16.0991V16.8918H23.4405L22.4777 15.766V16.8918H4.43907L3.9623 15.766H2.69095L2.21755 16.8918H0V13.7255Z" fill="white"/>
<path d="M2.43004 10.6304L0.00915528 15.9779H1.58528L2.03196 14.9071H4.62875L5.07312 15.9779H6.68396L4.26538 10.6304H2.43004ZM3.32573 11.8749L4.11726 13.7461H2.53188L3.32573 11.8749Z" fill="#016FD0"/>
<path d="M6.85071 15.9771V10.6295L9.09047 10.6374L10.3932 14.0852L11.6647 10.6295H13.8866V15.9771H12.4794V12.0368L10.9878 15.9771H9.75367L8.25788 12.0368V15.9771H6.85071Z" fill="#016FD0"/>
<path d="M14.8495 15.9771V10.6295H19.4413V11.8257H16.2715V12.7404H19.3673V13.8662H16.2715V14.8161H19.4413V15.9771H14.8495Z" fill="#016FD0"/>
<path d="M20.2559 10.6304V15.9779H21.663V14.0782H22.2555L23.9427 15.9779H25.6624L23.8108 14.0078C24.5707 13.9469 25.3545 13.3273 25.3545 12.3653C25.3545 11.24 24.4249 10.6304 23.3873 10.6304H20.2559ZM21.663 11.8266H23.2716C23.6574 11.8266 23.9381 12.1133 23.9381 12.3895C23.9381 12.7447 23.5744 12.9524 23.2924 12.9524H21.663V11.8266Z" fill="#016FD0"/>
<path d="M27.3656 15.9771H25.9288V10.6295H27.3656V15.9771Z" fill="#016FD0"/>
<path d="M30.7724 15.9771H30.4623C28.9617 15.9771 28.0507 14.8539 28.0507 13.3253C28.0507 11.7589 28.9515 10.6295 30.8465 10.6295H32.4018V11.896H30.7896C30.0204 11.896 29.4764 12.4664 29.4764 13.3385C29.4764 14.3741 30.0984 14.8091 30.9946 14.8091H31.3649L30.7724 15.9771Z" fill="#016FD0"/>
<path d="M33.8345 10.6304L31.4136 15.9779H32.9897L33.4364 14.9071H36.0332L36.4775 15.9779H38.0884L35.6698 10.6304H33.8345ZM34.7302 11.8749L35.5217 13.7461H33.9363L34.7302 11.8749Z" fill="#016FD0"/>
<path d="M38.2526 15.9771V10.6295H40.0416L42.326 13.9893V10.6295H43.7331V15.9771H42.0019L39.6597 12.5293V15.9771H38.2526Z" fill="#016FD0"/>
<path d="M10.2576 25.3353V19.9877H14.8494V21.1839H11.6796V22.0986H14.7753V23.2244H11.6796V24.1743H14.8494V25.3353H10.2576Z" fill="#016FD0"/>
<path d="M32.7576 25.3353V19.9877H37.3494V21.1839H34.1796V22.0986H37.2605V23.2244H34.1796V24.1743H37.3494V25.3353H32.7576Z" fill="#016FD0"/>
<path d="M15.0276 25.3353L17.2633 22.6945L14.9744 19.9877H16.7472L18.1104 21.661L19.4782 19.9877H21.1817L18.9228 22.6615L21.1626 25.3353H19.3901L18.0664 23.6883L16.775 25.3353H15.0276Z" fill="#016FD0"/>
<path d="M21.3298 19.9886V25.3362H22.774V23.6475H24.2552C25.5085 23.6475 26.4585 23.0158 26.4585 21.7873C26.4585 20.7696 25.7135 19.9886 24.4381 19.9886H21.3298ZM22.774 21.198H24.3339C24.7388 21.198 25.0282 21.4338 25.0282 21.8137C25.0282 22.1706 24.7403 22.4293 24.3293 22.4293H22.774V21.198Z" fill="#016FD0"/>
<path d="M27.0696 19.9877V25.3353H28.4768V23.4355H29.0693L30.7565 25.3353H32.4761L30.6245 23.3651C31.3844 23.3042 32.1683 22.6846 32.1683 21.7226C32.1683 20.5973 31.2386 19.9877 30.201 19.9877H27.0696ZM28.4768 21.1839H30.0853C30.4711 21.1839 30.7518 21.4706 30.7518 21.7468C30.7518 22.102 30.3882 22.3097 30.1061 22.3097H28.4768V21.1839Z" fill="#016FD0"/>
<path d="M38.001 25.3353V24.1743H40.8171C41.2338 24.1743 41.4143 23.9604 41.4143 23.7257C41.4143 23.5009 41.2344 23.2736 40.8171 23.2736H39.5445C38.4383 23.2736 37.8223 22.6333 37.8223 21.672C37.8223 20.8146 38.3864 19.9877 40.0302 19.9877H42.7705L42.178 21.1909H39.8081C39.355 21.1909 39.2156 21.4168 39.2156 21.6324C39.2156 21.8541 39.3879 22.0986 39.734 22.0986H41.0671C42.3002 22.0986 42.8353 22.7631 42.8353 23.6334C42.8353 24.569 42.2391 25.3353 41 25.3353H38.001Z" fill="#016FD0"/>
<path d="M43.1656 25.3353V24.1743H45.9818C46.3985 24.1743 46.5789 23.9604 46.5789 23.7257C46.5789 23.5009 46.3991 23.2736 45.9818 23.2736H44.7092C43.603 23.2736 42.987 22.6333 42.987 21.672C42.987 20.8146 43.5511 19.9877 45.1949 19.9877H47.9352L47.3427 21.1909H44.9727C44.5197 21.1909 44.3802 21.4168 44.3802 21.6324C44.3802 21.8541 44.5526 22.0986 44.8987 22.0986H46.2318C47.4649 22.0986 48 22.7631 48 23.6334C48 24.569 47.4037 25.3353 46.1646 25.3353H43.1656Z" fill="#016FD0"/>
</svg>
