<svg width="48" height="36" viewBox="0 0 48 36" fill="none" xmlns="http://www.w3.org/2000/svg">
<rect x="0.75" y="0.75" width="46.5" height="34.5" rx="5.25" fill="white"/>
<rect x="0.75" y="0.75" width="46.5" height="34.5" rx="5.25" stroke="#ECECF0" stroke-width="1.5"/>
<path d="M12.5845 12.4342C12.9946 11.9136 13.273 11.2144 13.1996 10.5C12.5991 10.5303 11.8664 10.902 11.4422 11.4231C11.0613 11.8694 10.7242 12.5978 10.8121 13.2822C11.4861 13.3416 12.1595 12.9403 12.5845 12.4342ZM13.1919 13.4159C12.2131 13.3567 11.3808 13.9797 10.9134 13.9797C10.4457 13.9797 9.72985 13.4457 8.95565 13.4601C7.94797 13.4751 7.01296 14.0534 6.50158 14.973C5.44982 16.8128 6.22403 19.5419 7.24682 21.0403C7.74352 21.7817 8.3421 22.5979 9.13086 22.5686C9.8761 22.5389 10.1682 22.0788 11.074 22.0788C11.9792 22.0788 12.2424 22.5686 13.0312 22.5537C13.8493 22.5389 14.3608 21.812 14.8575 21.07C15.4272 20.225 15.6605 19.409 15.6752 19.3642C15.6605 19.3494 14.0977 18.7409 14.0832 16.9164C14.0684 15.3887 15.3102 14.662 15.3686 14.617C14.6674 13.5644 13.5718 13.4457 13.1919 13.4159Z" fill="black"/>
<path d="M22.9521 11.3491C25.0796 11.3491 26.5612 12.8375 26.5612 15.0044C26.5612 17.1791 25.0492 18.6752 22.8989 18.6752H20.5433V22.4769H18.8413V11.3491H22.9521ZM20.5433 17.2253H22.4961C23.9779 17.2253 24.8212 16.4157 24.8212 15.0121C24.8212 13.6087 23.9779 12.8067 22.5037 12.8067H20.5433V17.2253ZM26.9834 20.1713C26.9834 18.7445 28.0548 17.9271 30.0303 17.8038L32.1502 17.6726V17.0558C32.1502 16.1535 31.5651 15.6599 30.5242 15.6599C29.6655 15.6599 29.0424 16.1072 28.9133 16.7935H27.3784C27.4241 15.3514 28.7614 14.3028 30.5698 14.3028C32.515 14.3028 33.7839 15.3361 33.7839 16.94V22.4769H32.211V21.1429H32.173C31.7247 22.0143 30.7369 22.5617 29.6655 22.5617C28.0851 22.5617 26.9834 21.6055 26.9834 20.1713ZM32.1502 19.4541V18.8293L30.2582 18.9528C29.1945 19.0221 28.6399 19.4231 28.6399 20.1249C28.6399 20.8035 29.2173 21.2432 30.1215 21.2432C31.2763 21.2432 32.1502 20.495 32.1502 19.4541ZM35.2299 25.4536V24.1196C35.3363 24.1348 35.5945 24.1503 35.7312 24.1503C36.4836 24.1503 36.909 23.8266 37.1674 22.9936L37.3194 22.5001L34.4396 14.403H36.2175L38.2235 20.9731H38.2615L40.2675 14.403H42L39.0138 22.9088C38.33 24.8598 37.5473 25.5 35.8908 25.5C35.7617 25.5 35.3437 25.4845 35.2299 25.4536Z" fill="black"/>
</svg>
