<svg width="48" height="36" viewBox="0 0 48 36" fill="none" xmlns="http://www.w3.org/2000/svg">
<rect width="48" height="36" rx="6" fill="black"/>
<path d="M19.5 25.5C23.6421 25.5 27 22.1421 27 18C27 13.8579 23.6421 10.5 19.5 10.5C15.3579 10.5 12 13.8579 12 18C12 22.1421 15.3579 25.5 19.5 25.5Z" fill="#E7001A"/>
<path d="M28.5 25.5C32.6421 25.5 36 22.1421 36 18C36 13.8579 32.6421 10.5 28.5 10.5C24.3579 10.5 21.0001 13.8579 21.0001 18C21.0001 22.1421 24.3579 25.5 28.5 25.5Z" fill="#F49B1C"/>
<path opacity="0.3" fill-rule="evenodd" clip-rule="evenodd" d="M24.0001 11.9994C25.8217 13.3677 27 15.5462 27 17.9999C27 20.4537 25.8217 22.6322 24.0001 24.0005C22.1784 22.6322 21.0001 20.4537 21.0001 17.9999C21.0001 15.5462 22.1784 13.3677 24.0001 11.9994Z" fill="#E7001A"/>
</svg>
