<svg width="48" height="36" viewBox="0 0 48 36" fill="none" xmlns="http://www.w3.org/2000/svg">
<rect width="48" height="36" rx="6" fill="#0071C0"/>
<path d="M30.6189 13.2043C30.6008 13.32 30.5802 13.4382 30.5569 13.5597C29.7589 17.6637 27.0287 19.0814 23.5418 19.0814H21.7664C21.34 19.0814 20.9807 19.3916 20.9142 19.8129L20.0052 25.5872L19.7478 27.224C19.7046 27.5006 19.9175 27.75 20.1962 27.75H23.3451C23.7179 27.75 24.0347 27.4786 24.0934 27.1103L24.1244 26.95L24.7172 23.1814L24.7553 22.9747C24.8134 22.605 25.1308 22.3337 25.5037 22.3337H25.9746C29.0254 22.3337 31.4137 21.093 32.1117 17.5028C32.4033 16.003 32.2523 14.7506 31.4808 13.8699C31.2472 13.6043 30.9576 13.3839 30.6189 13.2043Z" fill="#99C6E5"/>
<path d="M29.7841 12.8709C29.6622 12.8353 29.5364 12.803 29.4073 12.7739C29.2777 12.7455 29.1448 12.7203 29.008 12.6983C28.5293 12.6208 28.0048 12.584 27.4429 12.584H22.6999C22.5832 12.584 22.4722 12.6104 22.3729 12.6583C22.1542 12.7636 21.9916 12.971 21.9522 13.225L20.9432 19.6261L20.9142 19.8129C20.9807 19.3916 21.34 19.0814 21.7664 19.0814H23.5418C27.0287 19.0814 29.7589 17.6637 30.5569 13.5597C30.5802 13.4382 30.6008 13.32 30.6189 13.2043C30.417 13.097 30.1982 13.0053 29.9628 12.9271C29.9047 12.9077 29.8447 12.889 29.7841 12.8709Z" fill="#CCE2F2"/>
<path d="M21.9522 13.225C21.9916 12.971 22.1542 12.7636 22.3729 12.6583C22.4722 12.6104 22.5832 12.584 22.6999 12.584H27.4429C28.0048 12.584 28.5293 12.6208 29.008 12.6983C29.1448 12.7203 29.2777 12.7455 29.4073 12.7739C29.5364 12.803 29.6622 12.8353 29.7841 12.8709C29.8447 12.889 29.9047 12.9077 29.9628 12.9271C30.1982 13.0053 30.417 13.097 30.6189 13.2043C30.8563 11.6877 30.6176 10.6551 29.7989 9.72008C28.8964 8.6907 27.2675 8.25 25.183 8.25H19.1317C18.706 8.25 18.3428 8.56017 18.277 8.98213L15.7564 24.9849C15.7068 25.3016 15.9506 25.5872 16.2693 25.5872L20.0052 25.5872L20.9432 19.6261L21.9522 13.225Z" fill="white"/>
</svg>
