<svg width="48" height="36" viewBox="0 0 48 36" fill="none" xmlns="http://www.w3.org/2000/svg">
<rect width="48" height="36" rx="6" fill="#1B16E6"/>
<path d="M24.6183 15.8363C24.5978 17.5079 26.0614 18.4408 27.1642 18.9953C28.297 19.5644 28.6776 19.9293 28.6732 20.4382C28.6646 21.217 27.7696 21.5607 26.9318 21.5741C25.4702 21.5975 24.6205 21.1668 23.9449 20.841L23.4184 23.384C24.0962 23.7065 25.3513 23.9877 26.6528 24C29.7078 24 31.7066 22.4434 31.7174 20.0298C31.7292 16.9667 27.6128 16.7971 27.6408 15.4279C27.6506 15.0128 28.0344 14.5698 28.8754 14.4571C29.2916 14.4002 30.4406 14.3567 31.7434 14.976L32.2546 12.5155C31.5542 12.2522 30.6536 12 29.5326 12C26.6572 12 24.6346 13.5778 24.6183 15.8363ZM37.1678 12.212C36.61 12.212 36.1398 12.5479 35.93 13.0634L31.566 23.8192H34.6188L35.2264 22.0863H38.957L39.3094 23.8192H42L39.652 12.212H37.1678ZM37.5948 15.3476L38.4758 19.7062H36.063L37.5948 15.3476ZM20.9169 12.212L18.5106 23.8192H21.4196L23.8249 12.212H20.9169ZM16.6134 12.212L13.5855 20.1123L12.3607 13.3948C12.2169 12.645 11.6494 12.212 11.0192 12.212H6.06919L6 12.549C7.01616 12.7766 8.17068 13.1438 8.8701 13.5365C9.29818 13.7765 9.42034 13.9862 9.56086 14.5564L11.8807 23.8192H14.9551L19.6684 12.212H16.6134Z" fill="white"/>
</svg>
